<svg width="500" height="500" xmlns="http://www.w3.org/2000/svg">
 <g>
  <title>fx-new-tab</title>
  <ellipse fill="#000000" stroke="#000" cx="250" cy="250" id="svg_9" rx="240" ry="240" stroke-width="5"/>
  <rect fill="#0d4efd" stroke="#000" x="100" y="150" width="60" height="80" id="svg_10" rx="5" stroke-width="0"/>
  <rect fill="#e01829" stroke="#000" x="180" y="150" width="60" height="80" id="svg_12" rx="5" stroke-width="0"/>
  <rect fill="#058719" stroke="#000" x="260" y="150" width="60" height="80" id="svg_13" rx="5" stroke-width="0"/>
  <rect fill="#ffc107" stroke="#000" x="340" y="150" width="60" height="80" id="svg_14" rx="5" stroke-width="0"/>
  <rect fill="#0d4efd" stroke="#000" x="100" y="270" width="60" height="80" id="svg_15" rx="5" stroke-width="0"/>
  <rect fill="#e01829" stroke="#000" x="180" y="270" width="60" height="80" id="svg_16" rx="5" stroke-width="0"/>
  <rect fill="#058719" stroke="#000" x="260" y="270" width="60" height="80" id="svg_17" rx="5" stroke-width="0"/>
  <rect fill="#ffc107" stroke="#000" x="340" y="270" width="60" height="80" id="svg_18" rx="5" stroke-width="0"/>
  <rect stroke-width="0" transform="rotate(45, 171.558, 318.562)" id="svg_1" height="100" width="220" y="268.56193" x="61.55761" stroke="#000" fill="#00ff00"/>
  <rect stroke-width="0" transform="rotate(-45, 306.844, 267.5)" id="svg_2" height="100" width="320" y="217.39774" x="146.84391" stroke="#000" fill="#00ff00"/>
 </g>
</svg>
